Coordinates
version=1
nRows=4
nColumns=107
inDegrees=yes

Units are S.I. units (second, meters, Newtons, ...)
If the header above contains a line with 'inDegrees', this indicates whether rotational values are in degrees (yes) or radians (no).

endheader
time	sternoclavicular_r2	sternoclavicular_r3	unrotscap_r3	unrotscap_r2	acromioclavicular_r2	acromioclavicular_r3	acromioclavicular_r1	unrothum_r1	unrothum_r3	unrothum_r2	elv_angle	shoulder_elv	shoulder1_r2	shoulder_rot	elbow_flexion	pro_sup	deviation	flexion	proximal_distal_r1	proximal_distal_r3	cmc_flexion	cmc_abduction	mp_flexion	ip_flexion	mcp2_flexion	mcp2_abduction	pm2_flexion	md2_flexion	mcp3_flexion	mcp3_abduction	pm3_flexion	md3_flexion	mcp4_flexion	mcp4_abduction	pm4_flexion	md4_flexion	mcp5_flexion	mcp5_abduction	pm5_flexion	md5_flexion	bicpt_tx	bicpt_ty	bicpt_tz	bicpt2_tx	bicpt2_ty	bicpt2_tz	ptpt_tx	ptpt_ty	ptpt_tz	FCUpt_tx	FCUpt_ty	FCUpt_tz	EDCpt_tx	EDCpt_ty	EDCpt_tz	APLpt_tx	APLpt_ty	APLpt_tz	FPLpt_tx	FPLpt_ty	FPLpt_tz	FPLpt2_tx	FPLpt2_ty	FPLpt2_tz	PEC1pt2_tx	PEC1pt2_ty	PEC1pt2_tz	PEC1pt3_tx	PEC1pt3_ty	PEC1pt3_tz	PEC2pt2_tx	PEC2pt2_ty	PEC2pt2_tz	PEC2pt3_tx	PEC2pt3_ty	PEC2pt3_tz	PEC3pt2_tx	PEC3pt2_ty	PEC3pt2_tz	PEC3pt3_tx	PEC3pt3_ty	PEC3pt3_tz	DELT2pt2a_tx	DELT2pt2a_ty	DELT2pt2a_tz	DELT2pt2_tx	DELT2pt2_ty	DELT2pt2_tz	LAT1pt2_tx	LAT1pt2_ty	LAT1pt2_tz	LAT1pt3_tx	LAT1pt3_ty	LAT1pt3_tz	LAT2pt2_tx	LAT2pt2_ty	LAT2pt2_tz	LAT2pt3_tx	LAT2pt3_ty	LAT2pt3_tz	LAT3pt2_tx	LAT3pt2_ty	LAT3pt2_tz	LAT3pt3_tx	LAT3pt3_ty	LAT3pt3_tz
      0.36666667	     -0.31331097	      0.13270374	     -0.13270374	      0.31331097	     -0.06343910	      0.51269247	      0.23045174	     -0.23045174	     -0.51269247	      0.06343910	    100.63588214	     74.17915669	     -1.75642749	    -31.53246520	     29.33551792	      9.67921024	     -0.09691320	     -1.07236157	     -0.13921240	     -0.53618078	    -13.02798864	      9.07515151	    -28.27469167	      3.97970608	     45.60436119	     14.01787649	      6.75397512	    -35.48405200	     66.14434509	      9.10444575	     85.96869562	     62.17568203	     54.82620847	     -4.49704839	     92.70705853	     52.02806441	      3.55203846	    -13.80107301	    -19.32380739	      4.89463862	      0.00087033	     -0.03096230	     -0.00484158	      0.01546614	     -0.01816914	     -0.01006231	      0.00683482	     -0.06536245	     -0.00082971	      0.00486945	     -0.18399528	      0.00017500	     -0.00116150	      0.00028870	      0.00011496	      0.00013414	      0.00005366	      0.00026828	      0.00017170	      0.00051510	      0.00028974	     -0.00234233	      0.00041999	      0.00050399	      0.00243143	      0.00853061	      0.00593434	     -0.00795366	      0.01920418	     -0.01821512	      0.00243143	      0.00853061	      0.00593434	      0.00053574	      0.01780301	     -0.00935482	      0.00387197	      0.00474376	      0.01577893	      0.00000000	      0.00735630	      0.00000000	     -0.00696460	     -0.03218554	     -0.00606312	      0.01954165	     -0.00080973	     -0.00825907	     -0.00086542	      0.01450616	     -0.00593434	      0.00239022	      0.02093502	     -0.01730848	     -0.00581071	      0.01256926	     -0.00531618	     -0.01211594	      0.02653968	     -0.02971290	     -0.02274829	      0.01405284	     -0.00712945	     -0.01508311	      0.03066074	     -0.03713082
      0.40000000	     -0.31445340	      0.13318762	     -0.13318762	      0.31445340	     -0.06367042	      0.51456191	      0.23129204	     -0.23129204	     -0.51456191	      0.06367042	    100.25047186	     74.44963760	     -1.74970081	    -29.91447958	     29.34197293	      8.34227290	     -0.09537322	     -1.07738412	     -0.13687983	     -0.53869206	    -13.05867525	      8.89885134	    -28.35116470	      4.55784366	     45.29455803	     13.99392110	      6.90350267	    -36.30704552	     65.88243275	      9.13026929	     86.03134280	     62.99655886	     54.30146922	     -4.69238301	     93.63354452	     50.94477744	      3.63687421	    -13.77049637	    -18.97467905	      4.91444469	      0.00087054	     -0.03096304	     -0.00484170	      0.01536890	     -0.01817089	     -0.01014697	      0.00693360	     -0.06529857	     -0.00072201	      0.00474763	     -0.18401134	      0.00021567	     -0.00100107	      0.00024710	      0.00010211	      0.00013024	      0.00005209	      0.00026047	      0.00016670	      0.00050011	      0.00028131	     -0.00235438	      0.00042121	      0.00050545	      0.00244030	      0.00856172	      0.00595598	     -0.00798266	      0.01927420	     -0.01828154	      0.00244030	      0.00856172	      0.00595598	      0.00053769	      0.01786793	     -0.00938893	      0.00388239	      0.00476106	      0.01580517	      0.00000000	      0.00741039	      0.00000000	     -0.00699000	     -0.03230290	     -0.00610805	      0.01884029	     -0.00075417	     -0.00745700	     -0.00086858	      0.01455905	     -0.00595598	      0.00239893	      0.02101136	     -0.01737160	     -0.00583189	      0.01261509	     -0.00533556	     -0.01216012	      0.02663645	     -0.02982124	     -0.02283124	      0.01410408	     -0.00715544	     -0.01513811	      0.03077254	     -0.03726621
      0.43333333	     -0.31444227	      0.13318290	     -0.13318290	      0.31444227	     -0.06366816	      0.51454370	      0.23128385	     -0.23128385	     -0.51454370	      0.06366816	    100.25702766	     74.44700173	     -1.74981523	    -29.91132108	     29.34459316	      8.34366404	     -0.09538163	     -1.07737726	     -0.13689278	     -0.53868863	    -13.05871000	      8.89870580	    -28.35114296	      4.55792947	     45.29559477	     13.99391505	      6.90369414	    -36.30679950	     65.88235129	      9.13025584	     86.03133977	     62.99657806	     54.30186055	     -4.69263978	     93.63307597	     50.94466226	      3.63829192	    -13.77012333	    -18.97398059	      4.91449595	      0.00087063	     -0.03096334	     -0.00484175	      0.01536896	     -0.01817160	     -0.01014686	      0.00693350	     -0.06529864	     -0.00072213	      0.00474777	     -0.18401132	      0.00021564	     -0.00100124	      0.00024715	      0.00010212	      0.00013024	      0.00005210	      0.00026048	      0.00016671	      0.00050013	      0.00028132	     -0.00235439	      0.00042121	      0.00050545	      0.00244021	      0.00856141	      0.00595577	     -0.00798238	      0.01927352	     -0.01828089	      0.00244021	      0.00856141	      0.00595577	      0.00053767	      0.01786730	     -0.00938860	      0.00388229	      0.00476089	      0.01580492	      0.00000000	      0.00740986	      0.00000000	     -0.00698975	     -0.03230175	     -0.00610762	      0.01883865	     -0.00075407	     -0.00745569	     -0.00086855	      0.01455854	     -0.00595577	      0.00239885	      0.02101062	     -0.01737098	     -0.00583169	      0.01261464	     -0.00533537	     -0.01215969	      0.02663551	     -0.02982019	     -0.02283043	      0.01410358	     -0.00715519	     -0.01513757	      0.03077145	     -0.03726489
      0.46666667	     -0.31149221	      0.13193340	     -0.13193340	      0.31149221	     -0.06307084	      0.50971632	      0.22911398	     -0.22911398	     -0.50971632	      0.06307084	    101.24926757	     73.74855041	     -1.76713308	    -34.29349712	     29.43878951	     12.74901797	     -0.10131852	     -1.05462398	     -0.14590580	     -0.52731199	    -13.05113766	      9.09808641	    -28.53345861	      5.65564792	     45.62058641	     14.01108318	      6.71159897	    -34.91406984	     66.07899315	      9.02096308	     85.94836791	     62.79019692	     54.79925891	     -5.05113519	     93.01323986	     51.02216115	      4.22833719	    -13.75416159	    -18.68578435	      4.88827804	      0.00087374	     -0.03097414	     -0.00484348	      0.01567407	     -0.01819719	     -0.00985852	      0.00660799	     -0.06550912	     -0.00107700	      0.00515124	     -0.18395652	      0.00008665	     -0.00152988	      0.00038630	      0.00014082	      0.00014759	      0.00005904	      0.00029518	      0.00018891	      0.00056674	      0.00031879	     -0.00235140	      0.00042091	      0.00050509	      0.00241732	      0.00848109	      0.00589989	     -0.00790749	      0.01909270	     -0.01810938	      0.00241732	      0.00848109	      0.00589989	      0.00053263	      0.01769967	     -0.00930052	      0.00385532	      0.00471623	      0.01573679	      0.00000000	      0.00727060	      0.00000000	     -0.00692418	     -0.03199870	     -0.00599194	      0.02065804	     -0.00090613	     -0.00969668	     -0.00086040	      0.01442195	     -0.00589989	      0.00237634	      0.02081350	     -0.01720801	     -0.00577697	      0.01249629	     -0.00528532	     -0.01204561	      0.02638561	     -0.02954042	     -0.02261624	      0.01397126	     -0.00708806	     -0.01499555	      0.03048276	     -0.03691528
